<?xml version="1.0" encoding="UTF-8" standalone="no"?>
<svg width="460px" height="460px" viewBox="0 0 460 460" version="1.1" xmlns="http://www.w3.org/2000/svg" xmlns:xlink="http://www.w3.org/1999/xlink">
    <!-- Generator: Sketch 41 (35326) - http://www.bohemiancoding.com/sketch -->
    <title>Artboard</title>
    <desc>Created with Sketch.</desc>
    <defs></defs>
    <g id="Page-1" stroke="none" stroke-width="1" fill="none" fill-rule="evenodd">
        <g id="Artboard">
            <path d="M454.985422,220 C449.895626,103.623589 356.403239,10.1961244 240.00009,5.2094341 L240,150.618938 C276.187173,155.131414 304.868586,183.812827 309.381062,220 L454.985422,220 Z" id="Combined-Shape" fill="#E1425A"></path>
            <path d="M5.21824653,220 C10.3050738,103.691473 103.691389,10.3051269 219.999904,5.21825075 L220,150.618938 C183.812827,155.131414 155.131414,183.812827 150.618938,220 L5.21824653,220 Z" id="Combined-Shape" fill="#32A45A"></path>
            <path d="M5.2128006,240 C10.238006,356.366755 103.649622,449.818356 219.999904,454.907059 L220,309.381062 C183.812827,304.868586 155.131414,276.187173 150.618938,240 L5.2128006,240 Z" id="Combined-Shape" fill="#00ABE7"></path>
            <path d="M454.990864,240.000087 C449.962684,356.434694 356.444987,449.927397 240.00009,454.915875 L240,309.381062 C276.187173,304.868586 304.868586,276.187173 309.381062,240 L454.990868,240 Z" id="Combined-Shape" fill="#F6AF66"></path>
        </g>
    </g>
</svg>